<svg width="428" height="51" viewBox="0 0 428 51" fill="none" xmlns="http://www.w3.org/2000/svg">
<path opacity="0.35" d="M383.367 22.7336C383.367 21.3735 384.47 20.2708 385.83 20.2708H404.775C406.135 20.2708 407.238 21.3735 407.238 22.7336V29.5538C407.238 30.914 406.135 32.0167 404.775 32.0167H385.83C384.47 32.0167 383.367 30.914 383.367 29.5538V22.7336Z" fill="black" stroke="#323232" stroke-width="1.1367"/>
<path opacity="0.4" d="M408.943 23.8702V28.417C409.858 28.0319 410.453 27.1361 410.453 26.1436C410.453 25.1511 409.858 24.2553 408.943 23.8702Z" fill="black"/>
<path d="M385.073 23.4914C385.073 22.6544 385.751 21.9758 386.588 21.9758H404.017C404.854 21.9758 405.533 22.6544 405.533 23.4914V28.796C405.533 29.633 404.854 30.3116 404.017 30.3116H386.588C385.751 30.3116 385.073 29.633 385.073 28.796V23.4914Z" fill="black"/>
<path fill-rule="evenodd" clip-rule="evenodd" d="M368.399 22.288C370.918 22.2881 373.34 23.2559 375.166 24.9914C375.303 25.1254 375.523 25.1237 375.658 24.9876L376.972 23.6615C377.041 23.5925 377.079 23.499 377.078 23.4017C377.078 23.3044 377.039 23.2114 376.969 23.1431C372.178 18.5514 364.619 18.5514 359.828 23.1431C359.758 23.2113 359.719 23.3043 359.718 23.4016C359.718 23.4989 359.756 23.5924 359.824 23.6615L361.139 24.9876C361.274 25.1239 361.494 25.1256 361.631 24.9914C363.457 23.2558 365.88 22.288 368.399 22.288ZM368.399 26.6024C369.783 26.6023 371.117 27.1167 372.143 28.0456C372.282 28.1774 372.5 28.1746 372.636 28.0392L373.948 26.713C374.017 26.6435 374.055 26.5491 374.054 26.451C374.053 26.353 374.013 26.2594 373.943 26.1913C370.819 23.2854 365.981 23.2854 362.857 26.1913C362.787 26.2594 362.746 26.353 362.746 26.4511C362.745 26.5492 362.783 26.6436 362.852 26.713L364.164 28.0392C364.3 28.1746 364.518 28.1774 364.657 28.0456C365.682 27.1173 367.016 26.603 368.399 26.6024ZM371.028 29.5056C371.03 29.6039 370.991 29.6987 370.921 29.7676L368.651 32.0588C368.584 32.1261 368.493 32.164 368.399 32.164C368.304 32.164 368.213 32.1261 368.147 32.0588L365.876 29.7676C365.806 29.6987 365.767 29.6038 365.769 29.5055C365.771 29.4072 365.814 29.314 365.887 29.2481C367.337 28.0218 369.461 28.0218 370.91 29.2481C370.983 29.3141 371.026 29.4072 371.028 29.5056Z" fill="black"/>
<path fill-rule="evenodd" clip-rule="evenodd" d="M352.867 20.0814H351.73C351.102 20.0814 350.593 20.5903 350.593 21.2181V31.0694C350.593 31.6972 351.102 32.2061 351.73 32.2061H352.867C353.495 32.2061 354.004 31.6972 354.004 31.0694V21.2181C354.004 20.5903 353.495 20.0814 352.867 20.0814ZM346.425 22.7338H347.562C348.19 22.7338 348.699 23.2428 348.699 23.8705V31.0696C348.699 31.6974 348.19 32.2063 347.562 32.2063H346.425C345.797 32.2063 345.288 31.6974 345.288 31.0696V23.8705C345.288 23.2428 345.797 22.7338 346.425 22.7338ZM342.258 25.3858H341.121C340.494 25.3858 339.985 25.8947 339.985 26.5225V31.0692C339.985 31.697 340.494 32.2059 341.121 32.2059H342.258C342.886 32.2059 343.395 31.697 343.395 31.0692V26.5225C343.395 25.8947 342.886 25.3858 342.258 25.3858ZM336.953 27.6592H335.816C335.189 27.6592 334.68 28.1681 334.68 28.7958V31.0692C334.68 31.697 335.189 32.2059 335.816 32.2059H336.953C337.581 32.2059 338.09 31.697 338.09 31.0692V28.7958C338.09 28.1681 337.581 27.6592 336.953 27.6592Z" fill="black"/>
<path d="M43.2911 32.1191C46.3465 32.1191 48.1614 29.7297 48.1614 25.6836C48.1614 24.16 47.8701 22.8779 47.3123 21.8872C46.5047 20.347 45.1143 19.5145 43.3577 19.5145C40.7435 19.5145 38.8953 21.2711 38.8953 23.7355C38.8953 26.0499 40.5603 27.7316 42.8498 27.7316C44.2568 27.7316 45.3974 27.0739 45.9635 25.9334H45.9885C45.9885 25.9334 46.0218 25.9334 46.0301 25.9334C46.0468 25.9334 46.1051 25.9334 46.1051 25.9334C46.1051 28.6807 45.0644 30.3209 43.3077 30.3209C42.2754 30.3209 41.4761 29.7547 41.2014 28.8473H39.0618C39.4198 30.8204 41.0932 32.1191 43.2911 32.1191ZM43.366 26.0249C41.984 26.0249 41.0016 25.0425 41.0016 23.6688C41.0016 22.3285 42.0339 21.3044 43.3743 21.3044C44.7147 21.3044 45.7471 22.3451 45.7471 23.7021C45.7471 25.0425 44.7397 26.0249 43.366 26.0249Z" fill="black"/>
<path d="M51.6751 32.0026C52.466 32.0026 53.0072 31.4365 53.0072 30.6872C53.0072 29.9296 52.466 29.3718 51.6751 29.3718C50.8925 29.3718 50.343 29.9296 50.343 30.6872C50.343 31.4365 50.8925 32.0026 51.6751 32.0026ZM51.6751 25.7585C52.466 25.7585 53.0072 25.2007 53.0072 24.4514C53.0072 23.6938 52.466 23.136 51.6751 23.136C50.8925 23.136 50.343 23.6938 50.343 24.4514C50.343 25.2007 50.8925 25.7585 51.6751 25.7585Z" fill="black"/>
<path d="M60.8001 31.8278H62.8565V29.5882H64.4799V27.7733H62.8565V19.8142H59.826C57.703 23.0111 56.013 25.6836 54.9307 27.6734V29.5882H60.8001V31.8278ZM56.9205 27.6983C58.3191 25.234 59.5679 23.2609 60.7168 21.5625H60.8334V27.8232H56.9205V27.6983Z" fill="black"/>
<path d="M69.0592 31.8278H71.2072V19.8142H69.0676L65.9289 22.0121V24.0768L68.9177 21.9788H69.0592V31.8278Z" fill="black"/>
</svg>
